<svg xmlns="http://www.w3.org/2000/svg" width="150"  viewBox="0 0 113.207 39.728">
  <defs>
    <style>
      .cls-1, .cls-4 {
        fill: #432b9c;
      }

      .cls-1 {
        font-size: 29px;
        font-family: Montserrat-Bold, Montserrat;
        font-weight: 700;
        letter-spacing: 0.04em;
      }

      .cls-2 {
        fill: #e20946;
      }

      .cls-3 {
        font-size: 5px;
        font-family: Poppins-Regular, Poppins;
        letter-spacing: 0.34em;
      }
    </style>
  </defs>
  <g id="Group_4" data-name="Group 4" transform="translate(-4.756 -26.753)">
    <g id="Group_3" data-name="Group 3" transform="translate(179.925 78.282)">
      <g id="Group_2" data-name="Group 2" transform="translate(-140.962 -50.763)">
        <text id="WSD" class="cls-1" transform="translate(39 28)"><tspan x="-39.034" y="0">W</tspan><tspan class="cls-2" y="0">SD</tspan></text>
        <text id="WEB_SOFT._DEV." data-name="WEB SOFT. DEV." class="cls-3" transform="translate(33.341 36.836)"><tspan x="-29.475" y="0">WEB SOFT. DEV.</tspan></text>
      </g>
      <g id="s" transform="translate(-153.462 -51.529) rotate(60)">
        <g id="_1" data-name="1" transform="translate(0 0)">
          <g id="_1-2" data-name="1" transform="translate(0 0)">
            <path id="Ellipse_1" data-name="Ellipse 1" d="M4.531.405A3.02,3.02,0,1,1,.405,1.511,3.02,3.02,0,0,1,4.531.405Z" transform="translate(10.98 0)"/>
            <path id="Ellipse_1_copy" data-name="Ellipse 1 copy" d="M4.531.405A3.02,3.02,0,1,1,.405,1.511,3.02,3.02,0,0,1,4.531.405Z" transform="translate(5.489 9.512)"/>
            <circle id="Ellipse_1_copy_2" data-name="Ellipse 1 copy 2" cx="3.02" cy="3.02" r="3.02" transform="translate(0 19.024)"/>
          </g>
          <path id="Color_Overlay" data-name="Color Overlay" class="cls-2" d="M0,22.045a3.02,3.02,0,1,1,3.02,3.02A3.02,3.02,0,0,1,0,22.045Zm7-6.9a3.019,3.019,0,1,1,1.507.405A3.02,3.02,0,0,1,7,15.148Zm5.491-9.512A3.019,3.019,0,1,1,14,6.042,3.021,3.021,0,0,1,12.491,5.636Z" transform="translate(0 0)"/>
        </g>
        <g id="_2" data-name="2" transform="translate(9.511 5.492)">
          <g id="_2-2" data-name="2" transform="translate(0 0)">
            <path id="Ellipse_1_copy_3" data-name="Ellipse 1 copy 3" d="M4.531.405A3.02,3.02,0,1,1,.405,1.511,3.02,3.02,0,0,1,4.531.405Z" transform="translate(10.981 0)"/>
            <path id="Ellipse_1_copy_4" data-name="Ellipse 1 copy 4" d="M4.531.405A3.02,3.02,0,1,1,.405,1.511,3.02,3.02,0,0,1,4.531.405Z" transform="translate(5.489 9.512)"/>
            <circle id="Ellipse_1_copy_5" data-name="Ellipse 1 copy 5" cx="3.02" cy="3.02" r="3.02" transform="translate(0 19.024)"/>
          </g>
          <path id="Color_Overlay-2" data-name="Color Overlay" class="cls-4" d="M0,22.044a3.021,3.021,0,1,1,3.021,3.021A3.02,3.02,0,0,1,0,22.044Zm7-6.9a3.019,3.019,0,1,1,1.507.405A3.021,3.021,0,0,1,7,15.148Zm5.491-9.512A3.019,3.019,0,1,1,14,6.042,3.021,3.021,0,0,1,12.491,5.636Z" transform="translate(0 0)"/>
        </g>
        <g id="_3" data-name="3" transform="translate(24.512 10.983)">
          <path id="Ellipse_1_copy_6" data-name="Ellipse 1 copy 6" d="M4.531.405A3.02,3.02,0,1,1,.405,1.511,3.02,3.02,0,0,1,4.531.405Z" transform="translate(5.492 0)"/>
          <path id="Ellipse_1_copy_7" data-name="Ellipse 1 copy 7" d="M4.531.405A3.02,3.02,0,1,1,.405,1.511,3.02,3.02,0,0,1,4.531.405Z" transform="translate(0 9.512)"/>
        </g>
      </g>
    </g>
  </g>
</svg>
